<?xml version="1.0" encoding="UTF-8"?>
<!-- Created with Inkscape (http://www.inkscape.org/) -->
<svg width="42.16mm" height="42.16mm" version="1.1" viewBox="0 0 42.16 42.16" xmlns="http://www.w3.org/2000/svg">
 <defs>
  <clipPath id="clipPath19">
   <ellipse transform="matrix(-.77016 -.63785 .53206 -.84671 0 0)" cx="99.073" cy="126.36" rx="27.429" ry="17.974" stroke-width="2.4759"/>
  </clipPath>
  <clipPath id="clipPath20">
   <circle transform="rotate(156.29)" cx="76.14" cy="148.19" r="21.08" stroke-width="2.3505"/>
  </clipPath>
  <clipPath id="clipPath21">
   <ellipse transform="matrix(.77201 .63562 -.52635 .85027 0 0)" cx="99.034" cy="126.47" rx="27.418" ry="17.99" stroke-width="2.4765"/>
  </clipPath>
  <clipPath id="clipPath22">
   <circle transform="rotate(-23.711)" cx="76.14" cy="148.19" r="21.08" stroke-width="2.3505"/>
  </clipPath>
 </defs>
 <g transform="translate(-55.061 -127.11)">
  <rect transform="rotate(23.711)" x="82.491" y="106.06" width="61.734" height="3.7643" clip-path="url(#clipPath22)" stroke-width="1.4095"/>
  <rect transform="matrix(.65967 -.75155 .40836 .91282 0 0)" x="-21.898" y="183.19" width="39.752" height="3.7643" clip-path="url(#clipPath21)" stroke-width="1.1311"/>
  <circle transform="rotate(1.9226)" cx="79.207" cy="139.93" r="5.2577" stroke-width="2.9704"/>
  <rect transform="rotate(203.71)" x="-186.05" y="-102.41" width="61.734" height="3.7643" clip-path="url(#clipPath20)" stroke-width="1.4095"/>
  <rect transform="matrix(-.65632 .75448 -.41242 -.91099 0 0)" x="-50.139" y="-167.77" width="39.752" height="3.7643" clip-path="url(#clipPath19)" stroke-width="1.1311"/>
  <circle transform="rotate(1.9226)" cx="92.387" cy="153.31" r="5.2416" stroke-width="2.9613"/>
 </g>
</svg>
